<svg xmlns="http://www.w3.org/2000/svg" version="1.1" xmlns:xlink="http://www.w3.org/1999/xlink" viewBox="0 0 10.988631135369527 9.263857767300594"><g transform="matrix(1,0,0,1,0.8401750952726541,6.47534771109044)"><rect width="10.988631135369527" height="10.988631135369527" x="-0.8401750952726541" y="-7.337734395124906" fill="#ffffff"></rect><g clip-path="url(#SvgjsClipPath1002)"><g clip-path="url(#SvgjsClipPath1000ed1ee7a1-4806-4001-9228-43430bf293cb)"><path d=" M 6.494630917320155 -4.783076752816937 L 2.8136500275040643 -4.783076752816937 L 2.8136500275040643 -1.102095863000847 L 6.494630917320155 -1.102095863000847 Z M 2.750185768226652 -4.84654101209435 L 2.750185768226652 -1.0386316037234349 L 6.558095176597567 -1.0386316037234349 L 6.558095176597567 -4.84654101209435 Z" fill="url(#gradient-39ec9e2a-78e2-495b-9ee6-58468f19a0c0_0)" transform="matrix(1,0,0,1,0,0)" fill-rule="evenodd"></path></g><g clip-path="url(#SvgjsClipPath1000ed1ee7a1-4806-4001-9228-43430bf293cb)"><path d=" M 4.654140472412109 -5.545428714175182 L 2.0512980661458196 -2.9425863079088925 L 4.654140472412109 -0.3397439016426027 L 7.256982878678399 -2.9425863079088925 Z M 1.9615541645032162 -2.9425863079088925 L 4.654140472412109 -0.25 L 7.346726780321002 -2.9425863079088925 L 4.654140472412109 -5.635172615817786 Z" fill="url(#gradient-39ec9e2a-78e2-495b-9ee6-58468f19a0c0_1)" transform="matrix(1,0,0,1,0,0)" fill-rule="evenodd"></path></g><g clip-path="url(#SvgjsClipPath1000ed1ee7a1-4806-4001-9228-43430bf293cb)"><path d=" M 5.327798640787835 -5.4567349211926635 L 2.1399918591283384 -3.616244476284619 L 3.980482304036383 -0.4284376946251225 L 7.168289085695879 -2.268928139533167 Z M 2.0532905800136723 -3.6394814961218724 L 3.9572452841991295 -0.3417364155104554 L 7.2549903648105465 -2.245691119695913 L 5.351035660625088 -5.54343620030733 Z" fill="url(#gradient-39ec9e2a-78e2-495b-9ee6-58468f19a0c0_2)" transform="matrix(1,0,0,1,0,0)" fill-rule="evenodd"></path></g><g clip-path="url(#SvgjsClipPath1000ed1ee7a1-4806-4001-9228-43430bf293cb)"><path d=" M 7.168289085695879 -3.616244476284619 L 3.980482304036383 -5.4567349211926635 L 2.1399918591283384 -2.2689281395331666 L 5.327798640787835 -0.4284376946251225 Z M 3.9572452841991295 -5.54343620030733 L 2.0532905800136723 -2.245691119695913 L 5.351035660625088 -0.3417364155104554 L 7.2549903648105465 -3.6394814961218724 Z" fill="url(#gradient-39ec9e2a-78e2-495b-9ee6-58468f19a0c0_3)" transform="matrix(1,0,0,1,0,0)" fill-rule="evenodd"></path></g><g clip-path="url(#SvgjsClipPath1000ed1ee7a1-4806-4001-9228-43430bf293cb)"><path d=" M 5.955548212613715 -5.196711861437901 L 2.4000149188831004 -4.243994048110498 L 3.3527327322105043 -0.6884607543798835 L 6.908266025941119 -1.641178567707287 Z M 2.322360729763008 -4.288879461863339 L 3.3078473184576627 -0.6108065652597916 L 6.98592021506121 -1.5962931539544463 L 6.000433626366556 -5.274366050557994 Z" fill="url(#gradient-39ec9e2a-78e2-495b-9ee6-58468f19a0c0_4)" transform="matrix(1,0,0,1,0,0)" fill-rule="evenodd"></path></g><g clip-path="url(#SvgjsClipPath1000ed1ee7a1-4806-4001-9228-43430bf293cb)"><path d=" M 6.908266025941119 -4.243994048110498 L 3.3527327322105043 -5.196711861437901 L 2.4000149188831004 -1.641178567707287 L 5.955548212613715 -0.6884607543798835 Z M 3.3078473184576627 -5.274366050557994 L 2.322360729763008 -1.5962931539544463 L 6.000433626366556 -0.6108065652597916 L 6.98592021506121 -4.288879461863339 Z" fill="url(#gradient-39ec9e2a-78e2-495b-9ee6-58468f19a0c0_5)" transform="matrix(1,0,0,1,0,0)" fill-rule="evenodd"></path></g><path d=" M 4.150731925972069 -4.113441579825793 L 4.150731925972069 -2.670370656454824 C 4.150731925972069 -2.5151312086376443 4.176422961350265 -2.380663236232622 4.227805032106655 -2.266966739239758 C 4.2791871028630455 -2.1532702422468937 4.352433884579602 -2.065811398406229 4.447545377256326 -2.0045902077177638 C 4.542656869933047 -1.943369017029298 4.655806749151908 -1.9127584216850657 4.786995014912906 -1.9127584216850657 C 4.920369751769919 -1.9127584216850657 5.035706102084795 -1.941729163707286 5.133004065857535 -1.9996706477517265 C 5.230302029630275 -2.0576121317961666 5.305188664668844 -2.140151415670794 5.357663970973243 -2.247288499375608 C 5.410139277277642 -2.3544255830804226 5.436376930429841 -2.4812409066493863 5.436376930429841 -2.6277344700825003 L 5.436376930429841 -4.113441579825793 L 5.672515808799636 -4.113441579825793 L 5.672515808799636 -2.6474127099466496 C 5.672515808799636 -2.468122080073287 5.634799182393349 -2.312882632256107 5.559365929580776 -2.1816943664951096 C 5.483932676768202 -2.0505061007341125 5.3757023575153795 -1.9493818125433444 5.234674971822308 -1.8783215019228043 C 5.093647586129236 -1.8072611913022638 4.923649458413943 -1.7717310359919938 4.724680588676431 -1.7717310359919938 C 4.49291465249867 -1.7717310359919938 4.297225489405182 -1.8072611913022638 4.13761309939597 -1.8783215019228043 C 3.978000709386756 -1.9493818125433444 3.8582914168798466 -2.0499594829601087 3.77848522187524 -2.1800545131730975 C 3.698679026870633 -2.3101495433860864 3.65877592936833 -2.4648423734292617 3.65877592936833 -2.6441330033026245 L 3.65877592936833 -4.113441579825793 L 4.150731925972069 -4.113441579825793 M 3.6686150493004046 -4.113441579825793 L 3.6686150493004046 -3.9166591811842966 L 3.65877592936833 -3.9166591811842966 C 3.65877592936833 -3.9647615452966622 3.641830778374201 -4.004118025024962 3.6079404763859437 -4.0347286203691946 C 3.574050174397686 -4.0653392157134265 3.533053841347374 -4.080644513385543 3.4849514772350085 -4.080644513385543 C 3.4849514772350085 -4.080644513385543 3.4762055928509423 -4.080644513385543 3.4587138240828095 -4.080644513385543 C 3.441222055314676 -4.080644513385543 3.43247617093061 -4.080644513385543 3.43247617093061 -4.080644513385543 L 3.43247617093061 -4.113441579825793 L 3.6686150493004046 -4.113441579825793 M 4.377031684409789 -4.113441579825793 L 4.377031684409789 -4.080644513385543 C 4.377031684409789 -4.080644513385543 4.368285800025722 -4.080644513385543 4.35079403125759 -4.080644513385543 C 4.333302262489457 -4.080644513385543 4.32455637810539 -4.080644513385543 4.32455637810539 -4.080644513385543 C 4.276454013993025 -4.080644513385543 4.235457680942713 -4.0653392157134265 4.201567378954455 -4.0347286203691946 C 4.167677076966198 -4.004118025024962 4.150731925972069 -3.9647615452966622 4.150731925972069 -3.9166591811842966 L 4.144172512684019 -3.9166591811842966 L 4.144172512684019 -4.113441579825793 L 4.377031684409789 -4.113441579825793 M 5.446216050361915 -4.113441579825793 L 5.446216050361915 -3.9166591811842966 L 5.436376930429841 -3.9166591811842966 C 5.436376930429841 -3.9647615452966622 5.419431779435712 -4.004118025024962 5.385541477447454 -4.0347286203691946 C 5.351651175459197 -4.0653392157134265 5.310654842408885 -4.080644513385543 5.26255247829652 -4.080644513385543 C 5.26255247829652 -4.080644513385543 5.253806593912453 -4.080644513385543 5.23631482514432 -4.080644513385543 C 5.218823056376188 -4.080644513385543 5.210077171992121 -4.080644513385543 5.210077171992121 -4.080644513385543 L 5.210077171992121 -4.113441579825793 L 5.446216050361915 -4.113441579825793 M 5.898815567237356 -4.113441579825793 L 5.898815567237356 -4.080644513385543 C 5.898815567237356 -4.080644513385543 5.890069682853289 -4.080644513385543 5.872577914085156 -4.080644513385543 C 5.855086145317023 -4.080644513385543 5.846340260932957 -4.080644513385543 5.846340260932957 -4.080644513385543 C 5.798237896820591 -4.080644513385543 5.757241563770279 -4.0653392157134265 5.723351261782022 -4.0347286203691946 C 5.689460959793765 -4.004118025024962 5.672515808799636 -3.9647615452966622 5.672515808799636 -3.9166591811842966 L 5.665956395511586 -3.9166591811842966 L 5.665956395511586 -4.113441579825793 L 5.898815567237356 -4.113441579825793" fill="url(#gradient-220e8964-6bda-4bb2-bd6c-d17d7c0d7a6c)" transform="matrix(1,0,0,1,0,0)" fill-rule="nonzero"></path></g><g><path d=" M 2.7242088317871094 0.610107421875 Q 2.6817283630371094 0.741943359375 2.6311912536621094 0.83935546875 Q 2.5806541442871094 0.936767578125 2.5257225036621094 1.001220703125 Q 2.4707908630371094 1.065673828125 2.4121971130371094 1.09716796875 Q 2.3536033630371094 1.128662109375 2.2957420349121094 1.128662109375 Q 2.2327537536621094 1.128662109375 2.1902732849121094 1.1085205078125 Q 2.1477928161621094 1.08837890625 2.1217918395996094 1.0535888671875 Q 2.0957908630371094 1.018798828125 2.0844383239746094 0.9715576171875 Q 2.0730857849121094 0.92431640625 2.0730857849121094 0.869384765625 Q 2.0730857849121094 0.804931640625 2.0870018005371094 0.731689453125 Q 2.1009178161621094 0.658447265625 2.1181297302246094 0.583740234375 Q 2.1353416442871094 0.509033203125 2.1492576599121094 0.43505859375 Q 2.1631736755371094 0.361083984375 2.1631736755371094 0.29443359375 Q 2.1631736755371094 0.19189453125 2.1104393005371094 0.1358642578125 Q 2.0577049255371094 0.079833984375 1.9573631286621094 0.079833984375 Q 1.8943748474121094 0.079833984375 1.8376121520996094 0.0999755859375 Q 1.7808494567871094 0.1201171875 1.7380027770996094 0.1563720703125 Q 1.6951560974121094 0.192626953125 1.6698875427246094 0.242431640625 Q 1.6446189880371094 0.292236328125 1.6446189880371094 0.3515625 Q 1.6446189880371094 0.392578125 1.6541404724121094 0.4222412109375 Q 1.6636619567871094 0.451904296875 1.6779441833496094 0.472412109375 Q 1.6922264099121094 0.492919921875 1.7087059020996094 0.50537109375 Q 1.7251853942871094 0.517822265625 1.7402000427246094 0.5244140625 Q 1.7552146911621094 0.531005859375 1.7654685974121094 0.533203125 Q 1.7757225036621094 0.535400390625 1.7771873474121094 0.535400390625 Q 1.7881736755371094 0.536865234375 1.7947654724121094 0.544921875 Q 1.8013572692871094 0.552978515625 1.8013572692871094 0.563232421875 Q 1.8013572692871094 0.574951171875 1.7929344177246094 0.5826416015625 Q 1.7845115661621094 0.59033203125 1.7735252380371094 0.59033203125 Q 1.7720603942871094 0.59033203125 1.7662010192871094 0.589599609375 Q 1.7603416442871094 0.5888671875 1.7588768005371094 0.588134765625 Q 1.7303123474121094 0.580810546875 1.6999168395996094 0.5650634765625 Q 1.6695213317871094 0.54931640625 1.6449851989746094 0.5211181640625 Q 1.6204490661621094 0.492919921875 1.6047019958496094 0.4515380859375 Q 1.5889549255371094 0.41015625 1.5889549255371094 0.3515625 Q 1.5889549255371094 0.280517578125 1.6189842224121094 0.2208251953125 Q 1.6490135192871094 0.1611328125 1.6995506286621094 0.1175537109375 Q 1.7500877380371094 0.073974609375 1.8167381286621094 0.0498046875 Q 1.8833885192871094 0.025634765625 1.9566307067871094 0.025634765625 Q 2.0181541442871094 0.025634765625 2.0664939880371094 0.0439453125 Q 2.1148338317871094 0.062255859375 2.1488914489746094 0.0970458984375 Q 2.1829490661621094 0.1318359375 2.2008934020996094 0.181640625 Q 2.2188377380371094 0.2314453125 2.2188377380371094 0.29443359375 Q 2.2188377380371094 0.362548828125 2.2045555114746094 0.4365234375 Q 2.1902732849121094 0.510498046875 2.1734275817871094 0.5848388671875 Q 2.1565818786621094 0.6591796875 2.1422996520996094 0.7313232421875 Q 2.1280174255371094 0.803466796875 2.1280174255371094 0.86865234375 Q 2.1280174255371094 0.914794921875 2.1364402770996094 0.952880859375 Q 2.1448631286621094 0.990966796875 2.1646385192871094 1.01806640625 Q 2.1844139099121094 1.045166015625 2.2162742614746094 1.0601806640625 Q 2.2481346130371094 1.0751953125 2.2950096130371094 1.0751953125 Q 2.3265037536621094 1.0751953125 2.3620262145996094 1.06201171875 Q 2.3975486755371094 1.048828125 2.4360008239746094 1.01513671875 Q 2.4744529724121094 0.9814453125 2.5158348083496094 0.923583984375 Q 2.5572166442871094 0.86572265625 2.6004295349121094 0.775634765625 Q 2.6319236755371094 0.709716796875 2.6586570739746094 0.633544921875 Q 2.6853904724121094 0.557373046875 2.7069969177246094 0.4815673828125 Q 2.7286033630371094 0.40576171875 2.7450828552246094 0.3350830078125 Q 2.7615623474121094 0.264404296875 2.7725486755371094 0.2098388671875 Q 2.7835350036621094 0.1552734375 2.7893943786621094 0.122314453125 Q 2.7952537536621094 0.08935546875 2.7952537536621094 0.087890625 Q 2.7974510192871094 0.07763671875 2.8047752380371094 0.0714111328125 Q 2.8120994567871094 0.065185546875 2.8223533630371094 0.065185546875 Q 2.8348045349121094 0.065185546875 2.8424949645996094 0.0732421875 Q 2.8501853942871094 0.081298828125 2.8501853942871094 0.091552734375 Q 2.8501853942871094 0.094482421875 2.8461570739746094 0.123046875 Q 2.8421287536621094 0.151611328125 2.8355369567871094 0.197021484375 Q 2.8289451599121094 0.242431640625 2.8205223083496094 0.3021240234375 Q 2.8120994567871094 0.36181640625 2.8036766052246094 0.427001953125 Q 2.7952537536621094 0.4921875 2.7868309020996094 0.5595703125 Q 2.7784080505371094 0.626953125 2.7718162536621094 0.6888427734375 Q 2.7652244567871094 0.750732421875 2.7611961364746094 0.8031005859375 Q 2.7571678161621094 0.85546875 2.7571678161621094 0.890625 Q 2.7571678161621094 0.985107421875 2.7897605895996094 1.0308837890625 Q 2.8223533630371094 1.07666015625 2.8750877380371094 1.07666015625 Q 2.9117088317871094 1.07666015625 2.9421043395996094 1.052490234375 Q 2.9724998474121094 1.0283203125 2.9963035583496094 0.993896484375 Q 3.0201072692871094 0.95947265625 3.0362205505371094 0.9228515625 Q 3.0523338317871094 0.88623046875 3.0611228942871094 0.860595703125 Q 3.0640525817871094 0.851806640625 3.0713768005371094 0.8466796875 Q 3.0787010192871094 0.841552734375 3.0874900817871094 0.841552734375 Q 3.0999412536621094 0.841552734375 3.1076316833496094 0.850341796875 Q 3.1153221130371094 0.859130859375 3.1153221130371094 0.869384765625 Q 3.1153221130371094 0.872314453125 3.1138572692871094 0.878173828125 Q 3.1109275817871094 0.88623046875 3.1025047302246094 0.9078369140625 Q 3.0940818786621094 0.929443359375 3.0801658630371094 0.9576416015625 Q 3.0662498474121094 0.98583984375 3.0464744567871094 1.0162353515625 Q 3.0266990661621094 1.046630859375 3.0010643005371094 1.0718994140625 Q 2.9754295349121094 1.09716796875 2.9435691833496094 1.1136474609375 Q 2.9117088317871094 1.130126953125 2.8736228942871094 1.130126953125 Q 2.8318748474121094 1.130126953125 2.7996482849121094 1.1136474609375 Q 2.7674217224121094 1.09716796875 2.7454490661621094 1.06640625 Q 2.7234764099121094 1.03564453125 2.7121238708496094 0.9913330078125 Q 2.7007713317871094 0.947021484375 2.7007713317871094 0.890625 Q 2.7007713317871094 0.84375 2.7073631286621094 0.769775390625 Q 2.7139549255371094 0.69580078125 2.7242088317871094 0.610107421875 M 3.1394920349121094 0.78369140625 Q 3.1365623474121094 0.803466796875 3.1321678161621094 0.8206787109375 Q 3.1277732849121094 0.837890625 3.1237449645996094 0.8507080078125 Q 3.1197166442871094 0.863525390625 3.1167869567871094 0.87158203125 Q 3.1138572692871094 0.879638671875 3.1131248474121094 0.88037109375 Q 3.1058006286621094 0.897216796875 3.0874900817871094 0.897216796875 Q 3.0772361755371094 0.897216796875 3.0684471130371094 0.8895263671875 Q 3.0596580505371094 0.8818359375 3.0596580505371094 0.8701171875 Q 3.0596580505371094 0.86572265625 3.0611228942871094 0.863525390625 Q 3.0625877380371094 0.861328125 3.0655174255371094 0.854736328125 Q 3.0684471130371094 0.84814453125 3.0728416442871094 0.832763671875 Q 3.0772361755371094 0.8173828125 3.0838279724121094 0.78515625 Q 3.0713768005371094 0.78515625 3.0581932067871094 0.784423828125 Q 3.0450096130371094 0.78369140625 3.0336570739746094 0.779296875 Q 3.0223045349121094 0.77490234375 3.0149803161621094 0.765380859375 Q 3.0076560974121094 0.755859375 3.0076560974121094 0.739013671875 Q 3.0076560974121094 0.7265625 3.0146141052246094 0.705322265625 Q 3.0215721130371094 0.68408203125 3.0332908630371094 0.66357421875 Q 3.0450096130371094 0.64306640625 3.0596580505371094 0.6280517578125 Q 3.0743064880371094 0.613037109375 3.0889549255371094 0.613037109375 Q 3.1058006286621094 0.613037109375 3.1164207458496094 0.62548828125 Q 3.1270408630371094 0.637939453125 3.1329002380371094 0.6558837890625 Q 3.1387596130371094 0.673828125 3.1413230895996094 0.693603515625 Q 3.1438865661621094 0.71337890625 3.1438865661621094 0.72802734375 Q 3.1563377380371094 0.72802734375 3.1684226989746094 0.7276611328125 Q 3.1805076599121094 0.727294921875 3.1914939880371094 0.727294921875 Q 3.2332420349121094 0.727294921875 3.2552146911621094 0.74560546875 Q 3.2771873474121094 0.763916015625 3.2771873474121094 0.8056640625 Q 3.2771873474121094 0.822509765625 3.2749900817871094 0.8408203125 Q 3.2727928161621094 0.859130859375 3.2698631286621094 0.8785400390625 Q 3.2669334411621094 0.89794921875 3.2647361755371094 0.9169921875 Q 3.2625389099121094 0.93603515625 3.2625389099121094 0.954345703125 Q 3.2625389099121094 0.980712890625 3.2698631286621094 0.9979248046875 Q 3.2771873474121094 1.01513671875 3.2881736755371094 1.025390625 Q 3.2991600036621094 1.03564453125 3.3116111755371094 1.0396728515625 Q 3.3240623474121094 1.043701171875 3.3343162536621094 1.043701171875 Q 3.3658103942871094 1.043701171875 3.3936424255371094 1.023193359375 Q 3.4214744567871094 1.002685546875 3.4449119567871094 0.9737548828125 Q 3.4683494567871094 0.94482421875 3.4870262145996094 0.91259765625 Q 3.5057029724121094 0.88037109375 3.5181541442871094 0.856201171875 Q 3.5218162536621094 0.849609375 3.5284080505371094 0.845947265625 Q 3.5349998474121094 0.84228515625 3.5423240661621094 0.84228515625 Q 3.5555076599121094 0.84228515625 3.5628318786621094 0.8507080078125 Q 3.5701560974121094 0.859130859375 3.5701560974121094 0.869384765625 Q 3.5701560974121094 0.876708984375 3.5672264099121094 0.882568359375 Q 3.5503807067871094 0.91259765625 3.5280418395996094 0.9503173828125 Q 3.5057029724121094 0.988037109375 3.4771385192871094 1.02099609375 Q 3.4485740661621094 1.053955078125 3.4130516052246094 1.07666015625 Q 3.3775291442871094 1.099365234375 3.3350486755371094 1.099365234375 Q 3.3086814880371094 1.099365234375 3.2852439880371094 1.0894775390625 Q 3.2618064880371094 1.07958984375 3.2445945739746094 1.0609130859375 Q 3.2273826599121094 1.042236328125 3.2171287536621094 1.0147705078125 Q 3.2068748474121094 0.9873046875 3.2068748474121094 0.952880859375 Q 3.2068748474121094 0.916259765625 3.2141990661621094 0.8800048828125 Q 3.2215232849121094 0.84375 3.2215232849121094 0.810791015625 Q 3.2215232849121094 0.796875 3.2152976989746094 0.7899169921875 Q 3.2090721130371094 0.782958984375 3.1878318786621094 0.782958984375 Q 3.1775779724121094 0.782958984375 3.1654930114746094 0.782958984375 Q 3.1534080505371094 0.782958984375 3.1394920349121094 0.78369140625 M 3.0904197692871094 0.7294921875 Q 3.0904197692871094 0.724365234375 3.0900535583496094 0.7159423828125 Q 3.0896873474121094 0.70751953125 3.0885887145996094 0.699462890625 Q 3.0874900817871094 0.69140625 3.0856590270996094 0.685546875 Q 3.0838279724121094 0.6796875 3.0816307067871094 0.6796875 Q 3.0794334411621094 0.6796875 3.0761375427246094 0.6851806640625 Q 3.0728416442871094 0.690673828125 3.0691795349121094 0.6983642578125 Q 3.0655174255371094 0.7060546875 3.0625877380371094 0.71484375 Q 3.0596580505371094 0.7236328125 3.0581932067871094 0.7294921875 L 3.0904197692871094 0.7294921875 M 4.134853363037109 0.8818359375 Q 4.132656097412109 0.88623046875 4.125331878662109 0.8997802734375 Q 4.118007659912109 0.913330078125 4.106288909912109 0.9312744140625 Q 4.094570159912109 0.94921875 4.078456878662109 0.9693603515625 Q 4.062343597412109 0.989501953125 4.043300628662109 1.00634765625 Q 4.024257659912109 1.023193359375 4.002285003662109 1.0341796875 Q 3.9803123474121094 1.045166015625 3.9568748474121094 1.045166015625 Q 3.9187889099121094 1.045166015625 3.8924217224121094 1.0316162109375 Q 3.8660545349121094 1.01806640625 3.8492088317871094 1.001220703125 Q 3.8374900817871094 1.02685546875 3.8206443786621094 1.048095703125 Q 3.8037986755371094 1.0693359375 3.7832908630371094 1.0850830078125 Q 3.7627830505371094 1.100830078125 3.7397117614746094 1.109619140625 Q 3.7166404724121094 1.118408203125 3.6924705505371094 1.118408203125 Q 3.6477928161621094 1.118408203125 3.6162986755371094 1.092041015625 Q 3.5848045349121094 1.065673828125 3.5639305114746094 1.0213623046875 Q 3.5430564880371094 0.97705078125 3.5313377380371094 0.91845703125 Q 3.5196189880371094 0.85986328125 3.5133934020996094 0.79541015625 Q 3.5071678161621094 0.73095703125 3.5057029724121094 0.6650390625 Q 3.5042381286621094 0.59912109375 3.5042381286621094 0.539794921875 Q 3.5042381286621094 0.42626953125 3.5108299255371094 0.3431396484375 Q 3.5174217224121094 0.260009765625 3.5287742614746094 0.2017822265625 Q 3.5401268005371094 0.1435546875 3.5551414489746094 0.1072998046875 Q 3.5701560974121094 0.071044921875 3.5870018005371094 0.0509033203125 Q 3.6038475036621094 0.03076171875 3.6214256286621094 0.0234375 Q 3.6390037536621094 0.01611328125 3.6558494567871094 0.01611328125 Q 3.6829490661621094 0.01611328125 3.7038230895996094 0.0322265625 Q 3.7246971130371094 0.04833984375 3.7389793395996094 0.0772705078125 Q 3.7532615661621094 0.106201171875 3.7605857849121094 0.147216796875 Q 3.7679100036621094 0.188232421875 3.7679100036621094 0.2373046875 Q 3.7679100036621094 0.315673828125 3.7510643005371094 0.399169921875 Q 3.7342185974121094 0.482666015625 3.7074851989746094 0.5657958984375 Q 3.6807518005371094 0.64892578125 3.6477928161621094 0.7291259765625 Q 3.6148338317871094 0.809326171875 3.5826072692871094 0.881103515625 Q 3.5870018005371094 0.9169921875 3.5957908630371094 0.9495849609375 Q 3.6045799255371094 0.982177734375 3.6184959411621094 1.0074462890625 Q 3.6324119567871094 1.03271484375 3.6514549255371094 1.0477294921875 Q 3.6704978942871094 1.062744140625 3.6954002380371094 1.062744140625 Q 3.7203025817871094 1.062744140625 3.7422752380371094 1.0484619140625 Q 3.7642478942871094 1.0341796875 3.7803611755371094 1.0111083984375 Q 3.7964744567871094 0.988037109375 3.8056297302246094 0.958740234375 Q 3.8147850036621094 0.929443359375 3.8147850036621094 0.898681640625 Q 3.8147850036621094 0.878173828125 3.8107566833496094 0.8572998046875 Q 3.8067283630371094 0.83642578125 3.7983055114746094 0.8199462890625 Q 3.7898826599121094 0.803466796875 3.7774314880371094 0.793212890625 Q 3.7649803161621094 0.782958984375 3.7474021911621094 0.782958984375 Q 3.7342185974121094 0.782958984375 3.7268943786621094 0.7884521484375 Q 3.7195701599121094 0.7939453125 3.7159080505371094 0.8009033203125 Q 3.7122459411621094 0.807861328125 3.7115135192871094 0.814453125 Q 3.7107810974121094 0.821044921875 3.7107810974121094 0.8232421875 Q 3.7107810974121094 0.83349609375 3.7151756286621094 0.84375 Q 3.7195701599121094 0.85400390625 3.7320213317871094 0.862060546875 Q 3.7444725036621094 0.870849609375 3.7444725036621094 0.88623046875 Q 3.7444725036621094 0.898681640625 3.7360496520996094 0.906005859375 Q 3.7276268005371094 0.913330078125 3.7173728942871094 0.913330078125 Q 3.7027244567871094 0.913330078125 3.6913719177246094 0.904541015625 Q 3.6800193786621094 0.895751953125 3.6719627380371094 0.8822021484375 Q 3.6639060974121094 0.86865234375 3.6595115661621094 0.853271484375 Q 3.6551170349121094 0.837890625 3.6551170349121094 0.82470703125 Q 3.6551170349121094 0.803466796875 3.6624412536621094 0.7855224609375 Q 3.6697654724121094 0.767578125 3.6825828552246094 0.7547607421875 Q 3.6954002380371094 0.741943359375 3.7118797302246094 0.7349853515625 Q 3.7283592224121094 0.72802734375 3.7466697692871094 0.72802734375 Q 3.7781639099121094 0.72802734375 3.8012351989746094 0.74267578125 Q 3.8243064880371094 0.75732421875 3.8396873474121094 0.781494140625 Q 3.8550682067871094 0.8056640625 3.8623924255371094 0.83642578125 Q 3.8697166442871094 0.8671875 3.8697166442871094 0.898681640625 Q 3.8697166442871094 0.9169921875 3.8675193786621094 0.9345703125 Q 3.8704490661621094 0.9404296875 3.8770408630371094 0.949951171875 Q 3.8836326599121094 0.95947265625 3.8946189880371094 0.96826171875 Q 3.9056053161621094 0.97705078125 3.9209861755371094 0.983642578125 Q 3.9363670349121094 0.990234375 3.9568748474121094 0.990234375 Q 3.9744529724121094 0.990234375 3.9931297302246094 0.9766845703125 Q 4.011806488037109 0.963134765625 4.029018402099609 0.9429931640625 Q 4.046230316162109 0.9228515625 4.060878753662109 0.8997802734375 Q 4.075527191162109 0.876708984375 4.085048675537109 0.85693359375 Q 4.088710784912109 0.849609375 4.095302581787109 0.8455810546875 Q 4.101894378662109 0.841552734375 4.109951019287109 0.841552734375 Q 4.122402191162109 0.841552734375 4.130092620849609 0.850341796875 Q 4.137783050537109 0.859130859375 4.137783050537109 0.8701171875 Q 4.137783050537109 0.87451171875 4.134853363037109 0.8818359375 M 3.5686912536621094 0.787353515625 Q 3.5935935974121094 0.725830078125 3.6192283630371094 0.6580810546875 Q 3.6448631286621094 0.59033203125 3.6653709411621094 0.52001953125 Q 3.6858787536621094 0.44970703125 3.6990623474121094 0.3779296875 Q 3.7122459411621094 0.30615234375 3.7122459411621094 0.236572265625 Q 3.7122459411621094 0.210205078125 3.7096824645996094 0.1812744140625 Q 3.7071189880371094 0.15234375 3.7005271911621094 0.128173828125 Q 3.6939353942871094 0.10400390625 3.6825828552246094 0.087890625 Q 3.6712303161621094 0.07177734375 3.6536521911621094 0.07177734375 Q 3.6477928161621094 0.07177734375 3.6386375427246094 0.0794677734375 Q 3.6294822692871094 0.087158203125 3.6192283630371094 0.1065673828125 Q 3.6089744567871094 0.1259765625 3.5987205505371094 0.160400390625 Q 3.5884666442871094 0.19482421875 3.5800437927246094 0.2479248046875 Q 3.5716209411621094 0.301025390625 3.5661277770996094 0.375732421875 Q 3.5606346130371094 0.450439453125 3.5606346130371094 0.551513671875 Q 3.5606346130371094 0.585205078125 3.5613670349121094 0.6199951171875 Q 3.5620994567871094 0.65478515625 3.5631980895996094 0.686279296875 Q 3.5642967224121094 0.7177734375 3.5657615661621094 0.744140625 Q 3.5672264099121094 0.7705078125 3.5686912536621094 0.787353515625 M 4.651210784912109 0.88037109375 Q 4.648281097412109 0.88623046875 4.639125823974609 0.9049072265625 Q 4.629970550537109 0.923583984375 4.615688323974609 0.94775390625 Q 4.601406097412109 0.971923828125 4.582363128662109 0.998291015625 Q 4.563320159912109 1.024658203125 4.539882659912109 1.046630859375 Q 4.516445159912109 1.068603515625 4.489345550537109 1.0828857421875 Q 4.462245941162109 1.09716796875 4.432216644287109 1.09716796875 Q 4.389736175537109 1.09716796875 4.360805511474609 1.070068359375 Q 4.331874847412109 1.04296875 4.318691253662109 1.001953125 Q 4.293788909912109 1.043701171875 4.259365081787109 1.0682373046875 Q 4.224941253662109 1.0927734375 4.190517425537109 1.0927734375 Q 4.163417816162109 1.0927734375 4.141445159912109 1.0828857421875 Q 4.119472503662109 1.072998046875 4.104091644287109 1.0550537109375 Q 4.088710784912109 1.037109375 4.080287933349609 1.012939453125 Q 4.071865081787109 0.98876953125 4.071865081787109 0.960205078125 Q 4.071865081787109 0.903076171875 4.091274261474609 0.8594970703125 Q 4.110683441162109 0.81591796875 4.140712738037109 0.78662109375 Q 4.170742034912109 0.75732421875 4.206996917724609 0.74267578125 Q 4.243251800537109 0.72802734375 4.276943206787109 0.72802734375 Q 4.299648284912109 0.72802734375 4.318691253662109 0.7342529296875 Q 4.337734222412109 0.740478515625 4.351284027099609 0.747802734375 Q 4.364833831787109 0.755126953125 4.372158050537109 0.7613525390625 Q 4.379482269287109 0.767578125 4.380214691162109 0.768310546875 Q 4.388271331787109 0.77783203125 4.388271331787109 0.7880859375 Q 4.388271331787109 0.799072265625 4.380214691162109 0.8074951171875 Q 4.372158050537109 0.81591796875 4.361171722412109 0.81591796875 Q 4.349452972412109 0.81591796875 4.341396331787109 0.807861328125 Q 4.339931488037109 0.806396484375 4.334804534912109 0.8023681640625 Q 4.329677581787109 0.79833984375 4.320888519287109 0.7939453125 Q 4.312099456787109 0.78955078125 4.300014495849609 0.7862548828125 Q 4.287929534912109 0.782958984375 4.272548675537109 0.782958984375 Q 4.249843597412109 0.782958984375 4.224208831787109 0.793212890625 Q 4.198574066162109 0.803466796875 4.177333831787109 0.8250732421875 Q 4.156093597412109 0.8466796875 4.141811370849609 0.8792724609375 Q 4.127529144287109 0.911865234375 4.127529144287109 0.95654296875 Q 4.127529144287109 0.970458984375 4.130458831787109 0.9847412109375 Q 4.133388519287109 0.9990234375 4.140712738037109 1.0107421875 Q 4.148036956787109 1.0224609375 4.160488128662109 1.02978515625 Q 4.172939300537109 1.037109375 4.191249847412109 1.037109375 Q 4.204433441162109 1.037109375 4.221645355224609 1.0283203125 Q 4.238857269287109 1.01953125 4.254604339599609 1.001220703125 Q 4.270351409912109 0.98291015625 4.283168792724609 0.955078125 Q 4.295986175537109 0.92724609375 4.301113128662109 0.88916015625 Q 4.302577972412109 0.87890625 4.310634613037109 0.8719482421875 Q 4.318691253662109 0.864990234375 4.329677581787109 0.864990234375 Q 4.339931488037109 0.864990234375 4.347621917724609 0.873046875 Q 4.355312347412109 0.881103515625 4.356044769287109 0.891357421875 Q 4.356777191162109 0.9052734375 4.358974456787109 0.9305419921875 Q 4.361171722412109 0.955810546875 4.368862152099609 0.980712890625 Q 4.376552581787109 1.005615234375 4.391933441162109 1.02392578125 Q 4.407314300537109 1.042236328125 4.434413909912109 1.042236328125 Q 4.451992034912109 1.042236328125 4.469203948974609 1.03271484375 Q 4.486415863037109 1.023193359375 4.502895355224609 1.0074462890625 Q 4.519374847412109 0.99169921875 4.534389495849609 0.9715576171875 Q 4.549404144287109 0.951416015625 4.561855316162109 0.930908203125 Q 4.574306488037109 0.910400390625 4.583827972412109 0.891357421875 Q 4.593349456787109 0.872314453125 4.599941253662109 0.8583984375 Q 4.603603363037109 0.850341796875 4.610561370849609 0.845947265625 Q 4.617519378662109 0.841552734375 4.625576019287109 0.841552734375 Q 4.638027191162109 0.841552734375 4.645717620849609 0.8507080078125 Q 4.653408050537109 0.85986328125 4.653408050537109 0.8701171875 Q 4.653408050537109 0.875244140625 4.651210784912109 0.88037109375 M 4.763271331787109 1.018798828125 Q 4.774990081787109 0.99462890625 4.790370941162109 0.9656982421875 Q 4.805751800537109 0.936767578125 4.823329925537109 0.9071044921875 Q 4.840908050537109 0.87744140625 4.860317230224609 0.84814453125 Q 4.879726409912109 0.81884765625 4.900966644287109 0.79248046875 Q 4.922206878662109 0.766845703125 4.943813323974609 0.7554931640625 Q 4.965419769287109 0.744140625 4.984462738037109 0.744140625 Q 5.022548675537109 0.744140625 5.040859222412109 0.77197265625 Q 5.059169769287109 0.7998046875 5.059169769287109 0.8408203125 Q 5.059169769287109 0.850341796875 5.058071136474609 0.8638916015625 Q 5.056972503662109 0.87744140625 5.055873870849609 0.892822265625 Q 5.054775238037109 0.908203125 5.053676605224609 0.9239501953125 Q 5.052577972412109 0.939697265625 5.052577972412109 0.95361328125 Q 5.052577972412109 0.97119140625 5.054409027099609 0.9873046875 Q 5.056240081787109 1.00341796875 5.061367034912109 1.0155029296875 Q 5.066493988037109 1.027587890625 5.076015472412109 1.0345458984375 Q 5.085536956787109 1.04150390625 5.100917816162109 1.04150390625 Q 5.128749847412109 1.04150390625 5.155117034912109 1.0198974609375 Q 5.181484222412109 0.998291015625 5.203823089599609 0.9686279296875 Q 5.226161956787109 0.93896484375 5.242641448974609 0.908203125 Q 5.259120941162109 0.87744140625 5.267177581787109 0.8583984375 Q 5.270839691162109 0.850341796875 5.277797698974609 0.845947265625 Q 5.284755706787109 0.841552734375 5.292812347412109 0.841552734375 Q 5.305263519287109 0.841552734375 5.312953948974609 0.8507080078125 Q 5.320644378662109 0.85986328125 5.320644378662109 0.8701171875 Q 5.320644378662109 0.875244140625 5.318447113037109 0.88037109375 Q 5.315517425537109 0.88623046875 5.306728363037109 0.904541015625 Q 5.297939300537109 0.9228515625 5.283657073974609 0.9466552734375 Q 5.269374847412109 0.970458984375 5.250331878662109 0.9971923828125 Q 5.231288909912109 1.02392578125 5.208217620849609 1.0458984375 Q 5.185146331787109 1.06787109375 5.158412933349609 1.08251953125 Q 5.131679534912109 1.09716796875 5.102382659912109 1.09716796875 Q 5.069423675537109 1.09716796875 5.048915863037109 1.0843505859375 Q 5.028408050537109 1.071533203125 5.016689300537109 1.0506591796875 Q 5.004970550537109 1.02978515625 5.000942230224609 1.0045166015625 Q 4.996913909912109 0.979248046875 4.996913909912109 0.95361328125 Q 4.996913909912109 0.942626953125 4.998012542724609 0.9287109375 Q 4.999111175537109 0.914794921875 5.000942230224609 0.8994140625 Q 5.002773284912109 0.884033203125 5.003871917724609 0.86865234375 Q 5.004970550537109 0.853271484375 5.004970550537109 0.83935546875 Q 5.004970550537109 0.81591796875 4.997646331787109 0.8074951171875 Q 4.990322113037109 0.799072265625 4.984462738037109 0.799072265625 Q 4.972743988037109 0.799072265625 4.957729339599609 0.8126220703125 Q 4.942714691162109 0.826171875 4.926235198974609 0.84814453125 Q 4.909755706787109 0.8701171875 4.892543792724609 0.8975830078125 Q 4.875331878662109 0.925048828125 4.860317230224609 0.9521484375 Q 4.845302581787109 0.979248046875 4.832485198974609 1.0037841796875 Q 4.819667816162109 1.0283203125 4.812343597412109 1.04443359375 Q 4.797695159912109 1.0751953125 4.783046722412109 1.0858154296875 Q 4.768398284912109 1.096435546875 4.753017425537109 1.096435546875 Q 4.731777191162109 1.096435546875 4.718959808349609 1.0836181640625 Q 4.706142425537109 1.07080078125 4.706142425537109 1.04736328125 Q 4.706142425537109 1.042236328125 4.707607269287109 1.0272216796875 Q 4.709072113037109 1.01220703125 4.711269378662109 0.9913330078125 Q 4.713466644287109 0.970458984375 4.715663909912109 0.9462890625 Q 4.717861175537109 0.922119140625 4.720058441162109 0.8983154296875 Q 4.722255706787109 0.87451171875 4.723720550537109 0.85400390625 Q 4.725185394287109 0.83349609375 4.725185394287109 0.819580078125 Q 4.725185394287109 0.80126953125 4.723720550537109 0.784423828125 Q 4.722255706787109 0.767578125 4.717861175537109 0.763916015625 Q 4.711269378662109 0.76611328125 4.694423675537109 0.7913818359375 Q 4.677577972412109 0.816650390625 4.651210784912109 0.88037109375 Q 4.647548675537109 0.888427734375 4.640224456787109 0.892822265625 Q 4.632900238037109 0.897216796875 4.624843597412109 0.897216796875 Q 4.612392425537109 0.897216796875 4.605068206787109 0.8887939453125 Q 4.597743988037109 0.88037109375 4.597743988037109 0.869384765625 Q 4.597743988037109 0.8642578125 4.599941253662109 0.8583984375 Q 4.632900238037109 0.780029296875 4.661830902099609 0.7430419921875 Q 4.690761566162109 0.7060546875 4.719326019287109 0.7060546875 Q 4.736171722412109 0.7060546875 4.747890472412109 0.7144775390625 Q 4.759609222412109 0.722900390625 4.766567230224609 0.73681640625 Q 4.773525238037109 0.750732421875 4.776821136474609 0.767578125 Q 4.780117034912109 0.784423828125 4.780117034912109 0.802001953125 Q 4.780117034912109 0.815185546875 4.778285980224609 0.843017578125 Q 4.776454925537109 0.870849609375 4.773525238037109 0.9027099609375 Q 4.770595550537109 0.9345703125 4.768032073974609 0.966064453125 Q 4.765468597412109 0.99755859375 4.763271331787109 1.018798828125 M 6.438320159912109 0.7734375 Q 6.437587738037109 0.7763671875 6.428066253662109 0.79833984375 Q 6.418544769287109 0.8203125 6.396205902099609 0.8525390625 Q 6.373867034912109 0.884765625 6.337245941162109 0.923583984375 Q 6.300624847412109 0.96240234375 6.244960784912109 0.9993896484375 Q 6.189296722412109 1.036376953125 6.113124847412109 1.0667724609375 Q 6.036952972412109 1.09716796875 5.936611175537109 1.11328125 Q 5.869228363037109 1.124267578125 5.795253753662109 1.124267578125 Q 5.733730316162109 1.124267578125 5.671840667724609 1.1158447265625 Q 5.609951019287109 1.107421875 5.553188323974609 1.0894775390625 Q 5.496425628662109 1.071533203125 5.447353363037109 1.043701171875 Q 5.398281097412109 1.015869140625 5.362026214599609 0.977783203125 Q 5.325771331787109 0.939697265625 5.304897308349609 0.8902587890625 Q 5.284023284912109 0.8408203125 5.284023284912109 0.780029296875 Q 5.284023284912109 0.67236328125 5.343715667724609 0.5947265625 Q 5.403408050537109 0.51708984375 5.520595550537109 0.473876953125 Q 5.478847503662109 0.43505859375 5.458339691162109 0.38818359375 Q 5.437831878662109 0.34130859375 5.437831878662109 0.290771484375 Q 5.437831878662109 0.227783203125 5.466762542724609 0.17431640625 Q 5.495693206787109 0.120849609375 5.546962738037109 0.08203125 Q 5.598232269287109 0.043212890625 5.668910980224609 0.0216064453125 Q 5.739589691162109 0 5.823818206787109 0 Q 5.908779144287109 0 5.972133636474609 0.01611328125 Q 6.035488128662109 0.0322265625 6.080532073974609 0.056396484375 Q 6.125576019287109 0.08056640625 6.154506683349609 0.109130859375 Q 6.183437347412109 0.1376953125 6.200283050537109 0.16259765625 Q 6.217128753662109 0.1875 6.223720550537109 0.2047119140625 Q 6.230312347412109 0.221923828125 6.231044769287109 0.22412109375 Q 6.231777191162109 0.22705078125 6.231777191162109 0.232177734375 Q 6.231777191162109 0.242431640625 6.224086761474609 0.2508544921875 Q 6.216396331787109 0.25927734375 6.203945159912109 0.25927734375 Q 6.195156097412109 0.25927734375 6.188198089599609 0.2537841796875 Q 6.181240081787109 0.248291015625 6.178310394287109 0.23876953125 Q 6.178310394287109 0.2373046875 6.172451019287109 0.2230224609375 Q 6.166591644287109 0.208740234375 6.151943206787109 0.188232421875 Q 6.137294769287109 0.167724609375 6.112026214599609 0.1446533203125 Q 6.086757659912109 0.12158203125 6.047206878662109 0.1014404296875 Q 6.007656097412109 0.081298828125 5.952724456787109 0.068115234375 Q 5.897792816162109 0.054931640625 5.823818206787109 0.054931640625 Q 5.738857269287109 0.054931640625 5.676235198974609 0.076171875 Q 5.613613128662109 0.097412109375 5.572963714599609 0.1314697265625 Q 5.532314300537109 0.16552734375 5.512538909912109 0.207275390625 Q 5.492763519287109 0.2490234375 5.492763519287109 0.289306640625 Q 5.492763519287109 0.3369140625 5.516201019287109 0.380126953125 Q 5.539638519287109 0.42333984375 5.583583831787109 0.4541015625 Q 5.623134613037109 0.44384765625 5.661220550537109 0.43798828125 Q 5.699306488037109 0.43212890625 5.732997894287109 0.4288330078125 Q 5.766689300537109 0.425537109375 5.794155120849609 0.4244384765625 Q 5.821620941162109 0.42333984375 5.839199066162109 0.42333984375 Q 5.871425628662109 0.42333984375 5.898525238037109 0.4281005859375 Q 5.925624847412109 0.432861328125 5.945034027099609 0.4420166015625 Q 5.964443206787109 0.451171875 5.975429534912109 0.4654541015625 Q 5.986415863037109 0.479736328125 5.986415863037109 0.498046875 Q 5.986415863037109 0.516357421875 5.975429534912109 0.531005859375 Q 5.964443206787109 0.545654296875 5.945034027099609 0.555908203125 Q 5.925624847412109 0.566162109375 5.898525238037109 0.5716552734375 Q 5.871425628662109 0.5771484375 5.839199066162109 0.5771484375 Q 5.804042816162109 0.5771484375 5.768154144287109 0.57275390625 Q 5.732265472412109 0.568359375 5.698207855224609 0.560302734375 Q 5.664150238037109 0.55224609375 5.632656097412109 0.5401611328125 Q 5.601161956787109 0.528076171875 5.575527191162109 0.5126953125 Q 5.459072113037109 0.5478515625 5.399013519287109 0.6141357421875 Q 5.338954925537109 0.680419921875 5.338954925537109 0.77783203125 Q 5.338954925537109 0.83056640625 5.357631683349609 0.8726806640625 Q 5.376308441162109 0.914794921875 5.409267425537109 0.947021484375 Q 5.442226409912109 0.979248046875 5.486537933349609 1.0023193359375 Q 5.530849456787109 1.025390625 5.581386566162109 1.0400390625 Q 5.631923675537109 1.0546875 5.686855316162109 1.0616455078125 Q 5.741786956787109 1.068603515625 5.795986175537109 1.068603515625 Q 5.831142425537109 1.068603515625 5.864101409912109 1.0660400390625 Q 5.897060394287109 1.0634765625 5.927822113037109 1.058349609375 Q 6.020107269287109 1.043701171875 6.090053558349609 1.0155029296875 Q 6.159999847412109 0.9873046875 6.210903167724609 0.9539794921875 Q 6.261806488037109 0.920654296875 6.295497894287109 0.8858642578125 Q 6.329189300537109 0.85107421875 6.349330902099609 0.8221435546875 Q 6.369472503662109 0.793212890625 6.377895355224609 0.77490234375 Q 6.386318206787109 0.756591796875 6.386318206787109 0.755859375 Q 6.389247894287109 0.7470703125 6.396205902099609 0.7423095703125 Q 6.403163909912109 0.737548828125 6.411952972412109 0.737548828125 Q 6.423671722412109 0.737548828125 6.431728363037109 0.74560546875 Q 6.439785003662109 0.753662109375 6.439785003662109 0.7646484375 Q 6.439785003662109 0.767578125 6.438320159912109 0.7734375 M 5.930751800537109 0.498779296875 Q 5.930751800537109 0.492919921875 5.921230316162109 0.488525390625 Q 5.911708831787109 0.484130859375 5.896694183349609 0.4815673828125 Q 5.881679534912109 0.47900390625 5.862636566162109 0.4779052734375 Q 5.843593597412109 0.476806640625 5.823818206787109 0.476806640625 Q 5.780605316162109 0.476806640625 5.741786956787109 0.4793701171875 Q 5.702968597412109 0.48193359375 5.653163909912109 0.491455078125 Q 5.691249847412109 0.50537109375 5.740688323974609 0.5137939453125 Q 5.790126800537109 0.522216796875 5.840663909912109 0.522216796875 Q 5.886806488037109 0.522216796875 5.908779144287109 0.514892578125 Q 5.930751800537109 0.507568359375 5.930751800537109 0.498779296875 M 7.077724456787109 0.88037109375 Q 7.074794769287109 0.88623046875 7.065639495849609 0.9049072265625 Q 7.056484222412109 0.923583984375 7.042201995849609 0.94775390625 Q 7.027919769287109 0.971923828125 7.008876800537109 0.998291015625 Q 6.989833831787109 1.024658203125 6.966396331787109 1.046630859375 Q 6.942958831787109 1.068603515625 6.915859222412109 1.0828857421875 Q 6.888759613037109 1.09716796875 6.858730316162109 1.09716796875 Q 6.816249847412109 1.09716796875 6.787319183349609 1.070068359375 Q 6.758388519287109 1.04296875 6.745204925537109 1.001953125 Q 6.720302581787109 1.043701171875 6.685878753662109 1.0682373046875 Q 6.651454925537109 1.0927734375 6.617031097412109 1.0927734375 Q 6.589931488037109 1.0927734375 6.567958831787109 1.0828857421875 Q 6.545986175537109 1.072998046875 6.530605316162109 1.0550537109375 Q 6.515224456787109 1.037109375 6.506801605224609 1.012939453125 Q 6.498378753662109 0.98876953125 6.498378753662109 0.960205078125 Q 6.498378753662109 0.903076171875 6.517787933349609 0.8594970703125 Q 6.537197113037109 0.81591796875 6.567226409912109 0.78662109375 Q 6.597255706787109 0.75732421875 6.633510589599609 0.74267578125 Q 6.669765472412109 0.72802734375 6.703456878662109 0.72802734375 Q 6.726161956787109 0.72802734375 6.745204925537109 0.7342529296875 Q 6.764247894287109 0.740478515625 6.777797698974609 0.747802734375 Q 6.791347503662109 0.755126953125 6.798671722412109 0.7613525390625 Q 6.805995941162109 0.767578125 6.806728363037109 0.768310546875 Q 6.814785003662109 0.77783203125 6.814785003662109 0.7880859375 Q 6.814785003662109 0.799072265625 6.806728363037109 0.8074951171875 Q 6.798671722412109 0.81591796875 6.787685394287109 0.81591796875 Q 6.775966644287109 0.81591796875 6.767910003662109 0.807861328125 Q 6.766445159912109 0.806396484375 6.761318206787109 0.8023681640625 Q 6.756191253662109 0.79833984375 6.747402191162109 0.7939453125 Q 6.738613128662109 0.78955078125 6.726528167724609 0.7862548828125 Q 6.714443206787109 0.782958984375 6.699062347412109 0.782958984375 Q 6.676357269287109 0.782958984375 6.650722503662109 0.793212890625 Q 6.625087738037109 0.803466796875 6.603847503662109 0.8250732421875 Q 6.582607269287109 0.8466796875 6.568325042724609 0.8792724609375 Q 6.554042816162109 0.911865234375 6.554042816162109 0.95654296875 Q 6.554042816162109 0.970458984375 6.556972503662109 0.9847412109375 Q 6.559902191162109 0.9990234375 6.567226409912109 1.0107421875 Q 6.574550628662109 1.0224609375 6.587001800537109 1.02978515625 Q 6.599452972412109 1.037109375 6.617763519287109 1.037109375 Q 6.630947113037109 1.037109375 6.648159027099609 1.0283203125 Q 6.665370941162109 1.01953125 6.681118011474609 1.001220703125 Q 6.696865081787109 0.98291015625 6.709682464599609 0.955078125 Q 6.722499847412109 0.92724609375 6.727626800537109 0.88916015625 Q 6.729091644287109 0.87890625 6.737148284912109 0.8719482421875 Q 6.745204925537109 0.864990234375 6.756191253662109 0.864990234375 Q 6.766445159912109 0.864990234375 6.774135589599609 0.873046875 Q 6.781826019287109 0.881103515625 6.782558441162109 0.891357421875 Q 6.783290863037109 0.9052734375 6.785488128662109 0.9305419921875 Q 6.787685394287109 0.955810546875 6.795375823974609 0.980712890625 Q 6.803066253662109 1.005615234375 6.818447113037109 1.02392578125 Q 6.833827972412109 1.042236328125 6.860927581787109 1.042236328125 Q 6.878505706787109 1.042236328125 6.895717620849609 1.03271484375 Q 6.912929534912109 1.023193359375 6.929409027099609 1.0074462890625 Q 6.945888519287109 0.99169921875 6.960903167724609 0.9715576171875 Q 6.975917816162109 0.951416015625 6.988368988037109 0.930908203125 Q 7.000820159912109 0.910400390625 7.010341644287109 0.891357421875 Q 7.019863128662109 0.872314453125 7.026454925537109 0.8583984375 Q 7.030117034912109 0.850341796875 7.037075042724609 0.845947265625 Q 7.044033050537109 0.841552734375 7.052089691162109 0.841552734375 Q 7.064540863037109 0.841552734375 7.072231292724609 0.8507080078125 Q 7.079921722412109 0.85986328125 7.079921722412109 0.8701171875 Q 7.079921722412109 0.875244140625 7.077724456787109 0.88037109375 M 7.108486175537109 0.813720703125 Q 7.104091644287109 0.825439453125 7.097866058349609 0.840087890625 Q 7.091640472412109 0.854736328125 7.083583831787109 0.870849609375 Q 7.076992034912109 0.88330078125 7.070034027099609 0.8902587890625 Q 7.063076019287109 0.897216796875 7.052089691162109 0.897216796875 Q 7.039638519287109 0.897216796875 7.032314300537109 0.8895263671875 Q 7.024990081787109 0.8818359375 7.024990081787109 0.87158203125 Q 7.024990081787109 0.867919921875 7.025722503662109 0.8653564453125 Q 7.026454925537109 0.86279296875 7.029384613037109 0.85693359375 Q 7.048427581787109 0.8203125 7.057582855224609 0.7928466796875 Q 7.066738128662109 0.765380859375 7.072597503662109 0.7353515625 Q 7.067470550537109 0.718505859375 7.065273284912109 0.706787109375 Q 7.063076019287109 0.695068359375 7.063076019287109 0.6826171875 Q 7.063076019287109 0.658447265625 7.073329925537109 0.6434326171875 Q 7.083583831787109 0.62841796875 7.101894378662109 0.62841796875 Q 7.118740081787109 0.62841796875 7.128627777099609 0.64306640625 Q 7.138515472412109 0.65771484375 7.138515472412109 0.678955078125 Q 7.138515472412109 0.690673828125 7.136318206787109 0.702392578125 Q 7.134120941162109 0.714111328125 7.130458831787109 0.731689453125 Q 7.147304534912109 0.7734375 7.164150238037109 0.8056640625 Q 7.180995941162109 0.837890625 7.194179534912109 0.8646240234375 Q 7.207363128662109 0.891357421875 7.215785980224609 0.914794921875 Q 7.224208831787109 0.938232421875 7.224208831787109 0.961669921875 Q 7.224208831787109 0.992431640625 7.211757659912109 1.020263671875 Q 7.199306488037109 1.048095703125 7.170742034912109 1.067138671875 Q 7.174404144287109 1.06787109375 7.178066253662109 1.06787109375 Q 7.181728363037109 1.06787109375 7.185390472412109 1.06787109375 Q 7.227138519287109 1.06787109375 7.262294769287109 1.048828125 Q 7.297451019287109 1.02978515625 7.325649261474609 0.9993896484375 Q 7.353847503662109 0.968994140625 7.375820159912109 0.9320068359375 Q 7.397792816162109 0.89501953125 7.413906097412109 0.8583984375 Q 7.421230316162109 0.841552734375 7.434413909912109 0.841552734375 Q 7.446865081787109 0.841552734375 7.453823089599609 0.850341796875 Q 7.460781097412109 0.859130859375 7.460781097412109 0.869384765625 Q 7.460781097412109 0.875244140625 7.458583831787109 0.88037109375 Q 7.450527191162109 0.900146484375 7.437709808349609 0.9254150390625 Q 7.424892425537109 0.95068359375 7.406948089599609 0.9774169921875 Q 7.389003753662109 1.004150390625 7.365566253662109 1.02978515625 Q 7.342128753662109 1.055419921875 7.313198089599609 1.0755615234375 Q 7.284267425537109 1.095703125 7.249843597412109 1.1077880859375 Q 7.215419769287109 1.119873046875 7.174404144287109 1.119873046875 Q 7.125331878662109 1.119873046875 7.083217620849609 1.1026611328125 Q 7.041103363037109 1.08544921875 7.014736175537109 1.0458984375 Q 7.010341644287109 1.039306640625 7.010341644287109 1.031982421875 Q 7.010341644287109 1.02099609375 7.018764495849609 1.0125732421875 Q 7.027187347412109 1.004150390625 7.038173675537109 1.004150390625 Q 7.049892425537109 1.004150390625 7.057949066162109 1.01220703125 Q 7.058681488037109 1.013671875 7.063076019287109 1.0169677734375 Q 7.067470550537109 1.020263671875 7.073696136474609 1.0242919921875 Q 7.079921722412109 1.0283203125 7.088344573974609 1.03125 Q 7.096767425537109 1.0341796875 7.105556488037109 1.0341796875 Q 7.123134613037109 1.0341796875 7.135219573974609 1.02685546875 Q 7.147304534912109 1.01953125 7.154628753662109 1.0089111328125 Q 7.161952972412109 0.998291015625 7.165248870849609 0.9862060546875 Q 7.168544769287109 0.97412109375 7.168544769287109 0.96533203125 Q 7.168544769287109 0.947021484375 7.162685394287109 0.9287109375 Q 7.156826019287109 0.910400390625 7.147670745849609 0.89208984375 Q 7.138515472412109 0.873779296875 7.127895355224609 0.8543701171875 Q 7.117275238037109 0.8349609375 7.108486175537109 0.813720703125 M 7.495937347412109 1.004150390625 Q 7.511318206787109 1.025390625 7.535488128662109 1.0382080078125 Q 7.559658050537109 1.051025390625 7.594814300537109 1.051025390625 Q 7.630702972412109 1.051025390625 7.659999847412109 1.0338134765625 Q 7.689296722412109 1.0166015625 7.713466644287109 0.98876953125 Q 7.737636566162109 0.9609375 7.756679534912109 0.926513671875 Q 7.775722503662109 0.89208984375 7.791103363037109 0.857666015625 Q 7.794765472412109 0.849609375 7.801357269287109 0.8455810546875 Q 7.807949066162109 0.841552734375 7.816005706787109 0.841552734375 Q 7.828456878662109 0.841552734375 7.836147308349609 0.850341796875 Q 7.843837738037109 0.859130859375 7.843837738037109 0.869384765625 Q 7.843837738037109 0.873046875 7.843105316162109 0.8756103515625 Q 7.842372894287109 0.878173828125 7.840908050537109 0.881103515625 Q 7.790370941162109 0.992431640625 7.730678558349609 1.048828125 Q 7.670986175537109 1.105224609375 7.595546722412109 1.106689453125 Q 7.547206878662109 1.106689453125 7.512050628662109 1.0880126953125 Q 7.476894378662109 1.0693359375 7.454189300537109 1.0396728515625 Q 7.431484222412109 1.010009765625 7.420497894287109 0.97265625 Q 7.409511566162109 0.935302734375 7.409511566162109 0.89794921875 Q 7.409511566162109 0.860595703125 7.418666839599609 0.8291015625 Q 7.427822113037109 0.797607421875 7.445034027099609 0.774169921875 Q 7.462245941162109 0.750732421875 7.486049652099609 0.737548828125 Q 7.509853363037109 0.724365234375 7.538417816162109 0.724365234375 Q 7.555263519287109 0.724365234375 7.571743011474609 0.7313232421875 Q 7.588222503662109 0.73828125 7.601406097412109 0.7510986328125 Q 7.614589691162109 0.763916015625 7.622646331787109 0.7822265625 Q 7.630702972412109 0.800537109375 7.630702972412109 0.823974609375 Q 7.630702972412109 0.85400390625 7.620449066162109 0.88037109375 Q 7.610195159912109 0.90673828125 7.592250823974609 0.929443359375 Q 7.574306488037109 0.9521484375 7.549404144287109 0.97119140625 Q 7.524501800537109 0.990234375 7.495937347412109 1.004150390625 M 7.473964691162109 0.95654296875 Q 7.496669769287109 0.947021484375 7.515346527099609 0.932373046875 Q 7.534023284912109 0.917724609375 7.547206878662109 0.900146484375 Q 7.560390472412109 0.882568359375 7.567714691162109 0.8631591796875 Q 7.575038909912109 0.84375 7.575038909912109 0.823974609375 Q 7.575038909912109 0.802001953125 7.564052581787109 0.7906494140625 Q 7.553066253662109 0.779296875 7.538417816162109 0.779296875 Q 7.518642425537109 0.779296875 7.504726409912109 0.790283203125 Q 7.490810394287109 0.80126953125 7.482021331787109 0.81884765625 Q 7.473232269287109 0.83642578125 7.469203948974609 0.8580322265625 Q 7.465175628662109 0.879638671875 7.465175628662109 0.90087890625 Q 7.465175628662109 0.9140625 7.467739105224609 0.9287109375 Q 7.470302581787109 0.943359375 7.473964691162109 0.95654296875" fill="#262626" fill-rule="nonzero"></path></g><g><path d=" M 0.383125 1.5027099609374996 C 0.375 1.5027099609374996 0.36875 1.5077099609374998 0.366875 1.5120849609374998 L 0.22 1.8833349609374999 L 0.069375 1.4889599609374997 C 0.064375 1.4752099609374998 0.0575 1.4708349609374998 0.048125 1.4708349609374998 C 0.035 1.4708349609374998 0.030625 1.4814599609374999 0.030625 1.4870849609374996 C 0.030625 1.4895849609374998 0.03125 1.4939599609374998 0.0325 1.4964599609374998 L 0.20125 1.9364599609374997 C 0.204375 1.9452099609374998 0.210625 1.9458349609374999 0.2175 1.9458349609374999 C 0.224375 1.9458349609374999 0.23125 1.9452099609374998 0.23375 1.9383349609374998 L 0.383125 1.5595849609374999 L 0.533125 1.9383349609374998 C 0.535625 1.9452099609374998 0.54125 1.9458349609374999 0.548125 1.9458349609374999 C 0.555 1.9458349609374999 0.5593750000000001 1.9452099609374998 0.5625 1.9364599609374997 L 0.730625 1.4983349609374996 C 0.730625 1.4983349609374996 0.73375 1.4920849609374998 0.73375 1.4858349609375 C 0.73375 1.4777099609374997 0.72875 1.4708349609374998 0.71875 1.4708349609374998 C 0.706875 1.4708349609374998 0.70125 1.4783349609374998 0.698125 1.4864599609374998 L 0.5475 1.8789599609374998 L 0.403125 1.5120849609374998 C 0.400625 1.5064599609374998 0.3925 1.5027099609374996 0.383125 1.5027099609374996 M 0.8199905395507813 1.9289599609374997 C 0.8199905395507813 1.9339599609374998 0.8243655395507813 1.9395849609374998 0.8374905395507812 1.9395849609374998 C 0.8518655395507813 1.9395849609374998 0.8556155395507813 1.9339599609374998 0.8556155395507813 1.9289599609374997 L 0.8556155395507813 1.7927099609374997 L 1.1156155395507812 1.7927099609374997 L 1.1156155395507812 1.9289599609374997 C 1.1156155395507812 1.9339599609374998 1.1199905395507812 1.9395849609374998 1.1331155395507813 1.9395849609374998 C 1.1474905395507813 1.9395849609374998 1.1512405395507812 1.9339599609374998 1.1512405395507812 1.9289599609374997 L 1.1512405395507812 1.5514599609374997 C 1.1512405395507812 1.5464599609374998 1.1474905395507813 1.5408349609374998 1.1331155395507813 1.5408349609374998 C 1.1199905395507812 1.5408349609374998 1.1156155395507812 1.5464599609374998 1.1156155395507812 1.5514599609374997 L 1.1156155395507812 1.7602099609374997 L 0.8556155395507813 1.7602099609374997 L 0.8556155395507813 1.5514599609374997 C 0.8556155395507813 1.5464599609374998 0.8518655395507813 1.5408349609374998 0.8374905395507812 1.5408349609374998 C 0.8243655395507813 1.5408349609374998 0.8199905395507813 1.5464599609374998 0.8199905395507813 1.5514599609374997 M 1.3831292724609374 1.7789599609374998 L 1.3831292724609374 1.9289599609374997 C 1.3831292724609374 1.9339599609374998 1.3875042724609374 1.9395849609374998 1.4006292724609375 1.9395849609374998 C 1.4150042724609375 1.9395849609374998 1.4187542724609374 1.9339599609374998 1.4187542724609374 1.9289599609374997 L 1.4187542724609374 1.7789599609374998 L 1.5637542724609375 1.5595849609374999 C 1.5637542724609375 1.5595849609374999 1.5668792724609375 1.5558349609374997 1.5668792724609375 1.5533349609374998 C 1.5668792724609375 1.5458349609374997 1.5581292724609375 1.5414599609374997 1.5493792724609374 1.5414599609374997 C 1.5400042724609375 1.5414599609374997 1.5350042724609376 1.5464599609374998 1.5350042724609376 1.5464599609374998 L 1.4025042724609376 1.7452099609374998 L 1.2737542724609374 1.5539599609374997 C 1.2681292724609374 1.5452099609374996 1.2606292724609376 1.5414599609374997 1.2512542724609375 1.5414599609374997 C 1.2412542724609374 1.5414599609374997 1.2356292724609375 1.5470849609374997 1.2356292724609375 1.5527099609374997 C 1.2356292724609375 1.5577099609374998 1.2387542724609375 1.5633349609374998 1.2387542724609375 1.5633349609374998 M 1.8356494140625 1.8052099609374999 L 2.0006494140625 1.8052099609374999 C 2.0006494140625 1.8052099609374999 2.0112744140625 1.8027099609374997 2.0112744140625 1.7889599609374998 C 2.0112744140625 1.7752099609374998 2.0006494140625 1.7727099609374997 2.0006494140625 1.7727099609374997 L 1.8356494140625 1.7727099609374997 L 1.8356494140625 1.5733349609374998 L 2.0431494140625 1.5733349609374998 C 2.0431494140625 1.5733349609374998 2.0537744140625 1.5708349609374999 2.0537744140625 1.5570849609374997 C 2.0537744140625 1.5439599609374999 2.0431494140625 1.5414599609374997 2.0431494140625 1.5414599609374997 L 1.8106494140625 1.5414599609374997 C 1.8043994140625 1.5414599609374997 1.8000244140625 1.5452099609374996 1.8000244140625 1.5520849609374998 L 1.8000244140625 1.9289599609374997 C 1.8000244140625 1.9339599609374998 1.8043994140625 1.9395849609374998 1.8175244140625 1.9395849609374998 C 1.8318994140625 1.9395849609374998 1.8356494140625 1.9339599609374998 1.8356494140625 1.9289599609374997 M 2.1769122314453124 1.5514599609374997 C 2.1769122314453124 1.5452099609374996 2.1731622314453123 1.5414599609374997 2.1587872314453125 1.5414599609374997 C 2.1456622314453124 1.5414599609374997 2.1412872314453124 1.5458349609374997 2.1412872314453124 1.5514599609374997 L 2.1412872314453124 1.9289599609374997 C 2.1412872314453124 1.9339599609374998 2.1456622314453124 1.9395849609374998 2.1587872314453125 1.9395849609374998 C 2.1731622314453123 1.9395849609374998 2.1769122314453124 1.9339599609374998 2.1769122314453124 1.9289599609374997 M 2.5606619262695314 1.5645849609374998 C 2.5606619262695314 1.5645849609374998 2.566286926269531 1.5545849609374998 2.566286926269531 1.5495849609374996 C 2.566286926269531 1.5445849609374998 2.5625369262695314 1.5414599609374997 2.555661926269531 1.5414599609374997 L 2.3081619262695314 1.5414599609374997 C 2.3037869262695314 1.5414599609374997 2.2975369262695313 1.5470849609374997 2.2975369262695313 1.5570849609374997 C 2.2975369262695313 1.5708349609374999 2.3081619262695314 1.5739599609374997 2.3081619262695314 1.5739599609374997 L 2.5156619262695314 1.5739599609374997 L 2.2812869262695314 1.9164599609374997 C 2.278161926269531 1.9208349609374997 2.2769119262695314 1.9239599609374998 2.2769119262695314 1.9295849609374998 C 2.2769119262695314 1.9339599609374998 2.278161926269531 1.9395849609374998 2.2887869262695313 1.9395849609374998 L 2.5631619262695313 1.9395849609374998 C 2.5631619262695313 1.9395849609374998 2.5737869262695314 1.9370849609374998 2.5737869262695314 1.9233349609374997 C 2.5737869262695314 1.9102099609374998 2.5631619262695313 1.9070849609374998 2.5631619262695313 1.9070849609374998 L 2.3262869262695314 1.9070849609374998 M 2.9325186157226564 1.5645849609374998 C 2.9325186157226564 1.5645849609374998 2.938143615722656 1.5545849609374998 2.938143615722656 1.5495849609374996 C 2.938143615722656 1.5445849609374998 2.9343936157226564 1.5414599609374997 2.927518615722656 1.5414599609374997 L 2.6800186157226564 1.5414599609374997 C 2.6756436157226564 1.5414599609374997 2.6693936157226563 1.5470849609374997 2.6693936157226563 1.5570849609374997 C 2.6693936157226563 1.5708349609374999 2.6800186157226564 1.5739599609374997 2.6800186157226564 1.5739599609374997 L 2.8875186157226564 1.5739599609374997 L 2.6531436157226564 1.9164599609374997 C 2.650018615722656 1.9208349609374997 2.6487686157226564 1.9239599609374998 2.6487686157226564 1.9295849609374998 C 2.6487686157226564 1.9339599609374998 2.650018615722656 1.9395849609374998 2.6606436157226563 1.9395849609374998 L 2.9350186157226563 1.9395849609374998 C 2.9350186157226563 1.9395849609374998 2.9456436157226564 1.9370849609374998 2.9456436157226564 1.9233349609374997 C 2.9456436157226564 1.9102099609374998 2.9350186157226563 1.9070849609374998 2.9350186157226563 1.9070849609374998 L 2.6981436157226564 1.9070849609374998 M 3.1525003051757814 1.7789599609374998 L 3.1525003051757814 1.9289599609374997 C 3.1525003051757814 1.9339599609374998 3.1568753051757814 1.9395849609374998 3.1700003051757815 1.9395849609374998 C 3.1843753051757813 1.9395849609374998 3.1881253051757814 1.9339599609374998 3.1881253051757814 1.9289599609374997 L 3.1881253051757814 1.7789599609374998 L 3.3331253051757814 1.5595849609374999 C 3.3331253051757814 1.5595849609374999 3.3362503051757812 1.5558349609374997 3.3362503051757812 1.5533349609374998 C 3.3362503051757812 1.5458349609374997 3.327500305175781 1.5414599609374997 3.318750305175781 1.5414599609374997 C 3.3093753051757813 1.5414599609374997 3.3043753051757814 1.5464599609374998 3.3043753051757814 1.5464599609374998 L 3.171875305175781 1.7452099609374998 L 3.0431253051757814 1.5539599609374997 C 3.037500305175781 1.5452099609374996 3.0300003051757813 1.5414599609374997 3.0206253051757814 1.5414599609374997 C 3.010625305175781 1.5414599609374997 3.0050003051757814 1.5470849609374997 3.0050003051757814 1.5527099609374997 C 3.0050003051757814 1.5577099609374998 3.0081253051757812 1.5633349609374998 3.0081253051757812 1.5633349609374998 M 3.606270446777344 1.4852099609374998 C 3.606270446777344 1.4852099609374998 3.606270446777344 1.4708349609374998 3.5875204467773436 1.4708349609374998 C 3.568770446777344 1.4708349609374998 3.568770446777344 1.4852099609374998 3.568770446777344 1.4852099609374998 L 3.568770446777344 1.8252099609374999 C 3.568770446777344 1.8252099609374999 3.568770446777344 1.8395849609374997 3.5875204467773436 1.8395849609374997 C 3.606270446777344 1.8395849609374997 3.606270446777344 1.8252099609374999 3.606270446777344 1.8252099609374999 M 3.5581454467773437 1.9189599609374999 C 3.5581454467773437 1.9339599609374998 3.5693954467773437 1.9483349609374998 3.5875204467773436 1.9483349609374998 C 3.6050204467773437 1.9483349609374998 3.6162704467773437 1.9339599609374998 3.6162704467773437 1.9189599609374999 C 3.6162704467773437 1.9039599609374998 3.6025204467773437 1.8895849609374997 3.5875204467773436 1.8895849609374997 C 3.5718954467773436 1.8895849609374997 3.5581454467773437 1.9039599609374998 3.5581454467773437 1.9189599609374999 M 3.9300323486328126 1.4852099609374998 C 3.9300323486328126 1.4852099609374998 3.9300323486328126 1.4708349609374998 3.9112823486328123 1.4708349609374998 C 3.8925323486328125 1.4708349609374998 3.8925323486328125 1.4852099609374998 3.8925323486328125 1.4852099609374998 L 3.8925323486328125 1.9252099609374997 C 3.8925323486328125 1.9252099609374997 3.8925323486328125 1.9395849609374998 3.9112823486328123 1.9395849609374998 C 3.9300323486328126 1.9395849609374998 3.9300323486328126 1.9252099609374997 3.9300323486328126 1.9252099609374997 M 4.2981634521484375 1.5733349609374998 C 4.2981634521484375 1.5733349609374998 4.308788452148438 1.5708349609374999 4.308788452148438 1.5570849609374997 C 4.308788452148438 1.5439599609374999 4.2981634521484375 1.5414599609374997 4.2981634521484375 1.5414599609374997 L 4.021913452148437 1.5414599609374997 C 4.021913452148437 1.5414599609374997 4.011288452148437 1.5439599609374999 4.011288452148437 1.5570849609374997 C 4.011288452148437 1.5708349609374999 4.021913452148437 1.5733349609374998 4.021913452148437 1.5733349609374998 L 4.142538452148438 1.5733349609374998 L 4.142538452148438 1.9289599609374997 C 4.142538452148438 1.9345849609374999 4.146288452148437 1.9395849609374998 4.160038452148438 1.9395849609374998 C 4.173788452148438 1.9395849609374998 4.178163452148437 1.9345849609374999 4.178163452148437 1.9289599609374997 L 4.178163452148437 1.5733349609374998 M 4.403795166015625 1.5308349609374998 C 4.403795166015625 1.5102099609374997 4.390670166015625 1.4977099609374998 4.371920166015625 1.4977099609374998 C 4.357545166015625 1.4977099609374998 4.346295166015625 1.5058349609374997 4.346295166015625 1.5195849609374998 C 4.346295166015625 1.5370849609374997 4.364420166015625 1.5470849609374997 4.364420166015625 1.5564599609374998 C 4.364420166015625 1.5733349609374998 4.343170166015625 1.5833349609374998 4.343170166015625 1.5945849609374998 C 4.343170166015625 1.6008349609374997 4.348170166015625 1.6077099609374996 4.357545166015625 1.6077099609374996 C 4.369420166015625 1.6077099609374996 4.403795166015625 1.5658349609374997 4.403795166015625 1.5308349609374998 M 4.485039367675781 1.8533349609374998 C 4.485039367675781 1.8364599609374999 4.496289367675781 1.8264599609374998 4.496289367675781 1.8189599609374998 C 4.496289367675781 1.8127099609374997 4.490664367675781 1.8083349609374997 4.4844143676757815 1.8083349609374997 C 4.474414367675781 1.8083349609374997 4.451289367675781 1.8239599609374997 4.451289367675781 1.8595849609374997 C 4.451289367675781 1.9158349609374998 4.509414367675781 1.9458349609374999 4.596289367675781 1.9458349609374999 C 4.695039367675781 1.9458349609374999 4.748789367675781 1.8920849609374997 4.748789367675781 1.8283349609374997 C 4.748789367675781 1.6977099609374997 4.5000393676757815 1.7414599609374997 4.5000393676757815 1.6370849609374998 C 4.5000393676757815 1.5883349609374997 4.551914367675781 1.5652099609374996 4.605039367675781 1.5652099609374996 C 4.655664367675781 1.5652099609374996 4.686914367675781 1.5858349609374998 4.686914367675781 1.6127099609374997 C 4.686914367675781 1.6339599609374997 4.677539367675781 1.6364599609374997 4.677539367675781 1.6439599609374997 C 4.677539367675781 1.6483349609374998 4.6806643676757815 1.6527099609374998 4.690039367675781 1.6527099609374998 C 4.701289367675781 1.6527099609374998 4.721914367675781 1.6358349609374998 4.721914367675781 1.6108349609375 C 4.721914367675781 1.5695849609374997 4.674414367675781 1.5345849609374997 4.605039367675781 1.5345849609374997 C 4.521289367675781 1.5345849609374997 4.465039367675781 1.5789599609374998 4.465039367675781 1.6433349609374996 C 4.465039367675781 1.7702099609374997 4.713789367675782 1.7270849609374999 4.713789367675782 1.8333349609374998 C 4.713789367675782 1.8814599609374998 4.666289367675781 1.9139599609374998 4.595039367675781 1.9139599609374998 C 4.526914367675781 1.9139599609374998 4.485039367675781 1.8914599609374998 4.485039367675781 1.8533349609374998 M 5.038818969726562 1.8533349609374998 C 5.038818969726562 1.8364599609374999 5.050068969726563 1.8264599609374998 5.050068969726563 1.8189599609374998 C 5.050068969726563 1.8127099609374997 5.044443969726562 1.8083349609374997 5.038193969726563 1.8083349609374997 C 5.028193969726562 1.8083349609374997 5.005068969726563 1.8239599609374997 5.005068969726563 1.8595849609374997 C 5.005068969726563 1.9158349609374998 5.063193969726562 1.9458349609374999 5.150068969726562 1.9458349609374999 C 5.248818969726562 1.9458349609374999 5.302568969726562 1.8920849609374997 5.302568969726562 1.8283349609374997 C 5.302568969726562 1.6977099609374997 5.053818969726563 1.7414599609374997 5.053818969726563 1.6370849609374998 C 5.053818969726563 1.5883349609374997 5.105693969726563 1.5652099609374996 5.158818969726562 1.5652099609374996 C 5.209443969726562 1.5652099609374996 5.240693969726562 1.5858349609374998 5.240693969726562 1.6127099609374997 C 5.240693969726562 1.6339599609374997 5.231318969726562 1.6364599609374997 5.231318969726562 1.6439599609374997 C 5.231318969726562 1.6483349609374998 5.234443969726563 1.6527099609374998 5.243818969726562 1.6527099609374998 C 5.255068969726563 1.6527099609374998 5.275693969726563 1.6358349609374998 5.275693969726563 1.6108349609375 C 5.275693969726563 1.5695849609374997 5.228193969726562 1.5345849609374997 5.158818969726562 1.5345849609374997 C 5.075068969726562 1.5345849609374997 5.018818969726563 1.5789599609374998 5.018818969726563 1.6433349609374996 C 5.018818969726563 1.7702099609374997 5.267568969726563 1.7270849609374999 5.267568969726563 1.8333349609374998 C 5.267568969726563 1.8814599609374998 5.2200689697265625 1.9139599609374998 5.1488189697265625 1.9139599609374998 C 5.080693969726562 1.9139599609374998 5.038818969726562 1.8914599609374998 5.038818969726562 1.8533349609374998 M 5.591336364746094 1.9127099609374998 C 5.5038363647460935 1.9127099609374998 5.428836364746093 1.8452099609374997 5.428836364746093 1.7414599609374997 C 5.428836364746093 1.6358349609374998 5.503211364746094 1.5670849609374997 5.591336364746094 1.5670849609374997 C 5.679461364746094 1.5670849609374997 5.7538363647460935 1.6358349609374998 5.7538363647460935 1.7414599609374997 C 5.7538363647460935 1.8452099609374997 5.678211364746094 1.9127099609374998 5.591336364746094 1.9127099609374998 M 5.591336364746094 1.9452099609374998 C 5.698836364746094 1.9452099609374998 5.788836364746094 1.8627099609374997 5.788836364746094 1.7414599609374997 C 5.788836364746094 1.6189599609374998 5.693836364746094 1.5345849609374997 5.591336364746094 1.5345849609374997 C 5.488836364746094 1.5345849609374997 5.393211364746094 1.6189599609374998 5.393211364746094 1.7414599609374997 C 5.393211364746094 1.8627099609374997 5.483211364746094 1.9452099609374998 5.591336364746094 1.9452099609374998 M 6.080723876953125 1.9127099609374998 C 5.993223876953125 1.9127099609374998 5.918223876953125 1.8452099609374997 5.918223876953125 1.7414599609374997 C 5.918223876953125 1.6358349609374998 5.992598876953125 1.5670849609374997 6.080723876953125 1.5670849609374997 C 6.168848876953125 1.5670849609374997 6.243223876953125 1.6358349609374998 6.243223876953125 1.7414599609374997 C 6.243223876953125 1.8452099609374997 6.167598876953125 1.9127099609374998 6.080723876953125 1.9127099609374998 M 6.080723876953125 1.9452099609374998 C 6.188223876953125 1.9452099609374998 6.278223876953125 1.8627099609374997 6.278223876953125 1.7414599609374997 C 6.278223876953125 1.6189599609374998 6.183223876953125 1.5345849609374997 6.080723876953125 1.5345849609374997 C 5.978223876953125 1.5345849609374997 5.882598876953125 1.6189599609374998 5.882598876953125 1.7414599609374997 C 5.882598876953125 1.8627099609374997 5.972598876953125 1.9452099609374998 6.080723876953125 1.9452099609374998 M 6.570111389160156 1.9127099609374998 C 6.482611389160156 1.9127099609374998 6.407611389160156 1.8452099609374997 6.407611389160156 1.7414599609374997 C 6.407611389160156 1.6358349609374998 6.481986389160157 1.5670849609374997 6.570111389160156 1.5670849609374997 C 6.658236389160156 1.5670849609374997 6.732611389160156 1.6358349609374998 6.732611389160156 1.7414599609374997 C 6.732611389160156 1.8452099609374997 6.656986389160156 1.9127099609374998 6.570111389160156 1.9127099609374998 M 6.570111389160156 1.9452099609374998 C 6.677611389160156 1.9452099609374998 6.767611389160156 1.8627099609374997 6.767611389160156 1.7414599609374997 C 6.767611389160156 1.6189599609374998 6.672611389160156 1.5345849609374997 6.570111389160156 1.5345849609374997 C 6.467611389160156 1.5345849609374997 6.371986389160156 1.6189599609374998 6.371986389160156 1.7414599609374997 C 6.371986389160156 1.8627099609374997 6.461986389160156 1.9452099609374998 6.570111389160156 1.9452099609374998 M 7.075136108398437 1.9070849609374998 L 7.075136108398437 1.7989599609374998 L 7.249511108398438 1.7989599609374998 C 7.249511108398438 1.7989599609374998 7.260136108398438 1.7964599609374998 7.260136108398438 1.7827099609374997 C 7.260136108398438 1.7689599609374997 7.249511108398438 1.7658349609374997 7.249511108398438 1.7658349609374997 L 7.075136108398437 1.7658349609374997 L 7.075136108398437 1.5739599609374997 L 7.282011108398438 1.5739599609374997 C 7.282011108398438 1.5739599609374997 7.292636108398438 1.5708349609374999 7.292636108398438 1.5570849609374997 C 7.292636108398438 1.5439599609374999 7.282011108398438 1.5414599609374997 7.282011108398438 1.5414599609374997 L 7.050136108398437 1.5414599609374997 C 7.043886108398437 1.5414599609374997 7.039511108398438 1.5452099609374996 7.039511108398438 1.5520849609374998 L 7.039511108398438 1.9289599609374997 C 7.039511108398438 1.9352099609374998 7.043886108398437 1.9395849609374998 7.050136108398437 1.9395849609374998 L 7.297011108398437 1.9395849609374998 C 7.297011108398437 1.9395849609374998 7.307636108398437 1.9370849609374998 7.307636108398437 1.9233349609374997 C 7.307636108398437 1.9102099609374998 7.297011108398437 1.9070849609374998 7.297011108398437 1.9070849609374998 M 7.6776171875 1.8489599609374998 L 7.7144921875 1.9277099609374997 C 7.7182421875 1.9352099609374998 7.7238671875 1.9395849609374998 7.7332421875 1.9395849609374998 C 7.7438671875 1.9395849609374998 7.7482421875 1.9320849609374997 7.7482421875 1.9270849609374998 C 7.7482421875 1.9220849609374997 7.7463671875 1.9189599609374999 7.7463671875 1.9189599609374999 L 7.5707421875 1.5489599609374998 C 7.5676171875 1.5420849609374998 7.5644921875 1.5345849609374997 7.5551171875 1.5345849609374997 C 7.5457421875 1.5345849609374997 7.5419921875 1.5420849609374998 7.5388671875 1.5483349609375 L 7.3657421875 1.9189599609374999 C 7.3657421875 1.9189599609374999 7.3638671875 1.9220849609374997 7.3638671875 1.9270849609374998 C 7.3638671875 1.9339599609374998 7.3701171875 1.9395849609374998 7.3788671875 1.9395849609374998 C 7.3913671875 1.9395849609374998 7.3957421875 1.9352099609374998 7.4007421875 1.9239599609374998 L 7.4351171875 1.8489599609374998 M 7.5557421875 1.5895849609374997 L 7.6619921875 1.8158349609374997 L 7.4507421875 1.8158349609374997 M 7.847008361816406 1.8533349609374998 C 7.847008361816406 1.8364599609374999 7.858258361816406 1.8264599609374998 7.858258361816406 1.8189599609374998 C 7.858258361816406 1.8127099609374997 7.852633361816406 1.8083349609374997 7.8463833618164065 1.8083349609374997 C 7.836383361816406 1.8083349609374997 7.813258361816406 1.8239599609374997 7.813258361816406 1.8595849609374997 C 7.813258361816406 1.9158349609374998 7.871383361816406 1.9458349609374999 7.958258361816406 1.9458349609374999 C 8.057008361816406 1.9458349609374999 8.110758361816407 1.8920849609374997 8.110758361816407 1.8283349609374997 C 8.110758361816407 1.6977099609374997 7.8620083618164065 1.7414599609374997 7.8620083618164065 1.6370849609374998 C 7.8620083618164065 1.5883349609374997 7.913883361816406 1.5652099609374996 7.967008361816406 1.5652099609374996 C 8.017633361816406 1.5652099609374996 8.048883361816406 1.5858349609374998 8.048883361816406 1.6127099609374997 C 8.048883361816406 1.6339599609374997 8.039508361816406 1.6364599609374997 8.039508361816406 1.6439599609374997 C 8.039508361816406 1.6483349609374998 8.042633361816407 1.6527099609374998 8.052008361816407 1.6527099609374998 C 8.063258361816406 1.6527099609374998 8.083883361816406 1.6358349609374998 8.083883361816406 1.6108349609375 C 8.083883361816406 1.5695849609374997 8.036383361816407 1.5345849609374997 7.967008361816406 1.5345849609374997 C 7.883258361816406 1.5345849609374997 7.827008361816406 1.5789599609374998 7.827008361816406 1.6433349609374996 C 7.827008361816406 1.7702099609374997 8.075758361816407 1.7270849609374999 8.075758361816407 1.8333349609374998 C 8.075758361816407 1.8814599609374998 8.028258361816405 1.9139599609374998 7.957008361816406 1.9139599609374998 C 7.888883361816406 1.9139599609374998 7.847008361816406 1.8914599609374998 7.847008361816406 1.8533349609374998 M 8.321415100097656 1.7789599609374998 L 8.321415100097656 1.9289599609374997 C 8.321415100097656 1.9339599609374998 8.325790100097656 1.9395849609374998 8.338915100097656 1.9395849609374998 C 8.353290100097656 1.9395849609374998 8.357040100097656 1.9339599609374998 8.357040100097656 1.9289599609374997 L 8.357040100097656 1.7789599609374998 L 8.502040100097656 1.5595849609374999 C 8.502040100097656 1.5595849609374999 8.505165100097656 1.5558349609374997 8.505165100097656 1.5533349609374998 C 8.505165100097656 1.5458349609374997 8.496415100097657 1.5414599609374997 8.487665100097656 1.5414599609374997 C 8.478290100097656 1.5414599609374997 8.473290100097657 1.5464599609374998 8.473290100097657 1.5464599609374998 L 8.340790100097657 1.7452099609374998 L 8.212040100097656 1.5539599609374997 C 8.206415100097656 1.5452099609374996 8.198915100097656 1.5414599609374997 8.189540100097656 1.5414599609374997 C 8.179540100097656 1.5414599609374997 8.173915100097656 1.5470849609374997 8.173915100097656 1.5527099609374997 C 8.173915100097656 1.5577099609374998 8.177040100097656 1.5633349609374998 8.177040100097656 1.5633349609374998 M 8.708912048339844 1.7789599609374998 L 8.708912048339844 1.9289599609374997 C 8.708912048339844 1.9339599609374998 8.713287048339843 1.9395849609374998 8.726412048339844 1.9395849609374998 C 8.740787048339843 1.9395849609374998 8.744537048339843 1.9339599609374998 8.744537048339843 1.9289599609374997 L 8.744537048339843 1.7789599609374998 L 8.889537048339843 1.5595849609374999 C 8.889537048339843 1.5595849609374999 8.892662048339844 1.5558349609374997 8.892662048339844 1.5533349609374998 C 8.892662048339844 1.5458349609374997 8.883912048339845 1.5414599609374997 8.875162048339844 1.5414599609374997 C 8.865787048339843 1.5414599609374997 8.860787048339844 1.5464599609374998 8.860787048339844 1.5464599609374998 L 8.728287048339844 1.7452099609374998 L 8.599537048339844 1.5539599609374997 C 8.593912048339844 1.5452099609374996 8.586412048339843 1.5414599609374997 8.577037048339843 1.5414599609374997 C 8.567037048339843 1.5414599609374997 8.561412048339843 1.5470849609374997 8.561412048339843 1.5527099609374997 C 8.561412048339843 1.5577099609374998 8.564537048339844 1.5633349609374998 8.564537048339844 1.5633349609374998 M 9.096408996582031 1.7789599609374998 L 9.096408996582031 1.9289599609374997 C 9.096408996582031 1.9339599609374998 9.100783996582031 1.9395849609374998 9.113908996582031 1.9395849609374998 C 9.12828399658203 1.9395849609374998 9.132033996582031 1.9339599609374998 9.132033996582031 1.9289599609374997 L 9.132033996582031 1.7789599609374998 L 9.27703399658203 1.5595849609374999 C 9.27703399658203 1.5595849609374999 9.280158996582031 1.5558349609374997 9.280158996582031 1.5533349609374998 C 9.280158996582031 1.5458349609374997 9.271408996582032 1.5414599609374997 9.262658996582031 1.5414599609374997 C 9.25328399658203 1.5414599609374997 9.248283996582032 1.5464599609374998 9.248283996582032 1.5464599609374998 L 9.115783996582032 1.7452099609374998 L 8.987033996582031 1.5539599609374997 C 8.981408996582031 1.5452099609374996 8.973908996582031 1.5414599609374997 8.96453399658203 1.5414599609374997 C 8.95453399658203 1.5414599609374997 8.94890899658203 1.5470849609374997 8.94890899658203 1.5527099609374997 C 8.94890899658203 1.5577099609374998 8.952033996582031 1.5633349609374998 8.952033996582031 1.5633349609374998" fill="#e8a941" fill-rule="nonzero"></path></g></g><defs><clipPath id="SvgjsClipPath1002"><path d=" M 1.9615541645032164 -5.635172615817786 h 5.385172615817786 v 5.385172615817786 h -5.385172615817786 Z"></path></clipPath><clipPath id="SvgjsClipPath1000ed1ee7a1-4806-4001-9228-43430bf293cb"><path d=" M 1.9615541645032162 -5.635172615817786 L 7.346726780321002 -5.635172615817786 L 7.346726780321002 -0.25 L 1.9615541645032162 -0.25 Z"></path></clipPath><linearGradient id="gradient-39ec9e2a-78e2-495b-9ee6-58468f19a0c0_0" x1="0" x2="1" y1="0" y2="1"><stop stop-color="#cb953d" offset="0"></stop><stop stop-color="#423929" offset="1"></stop></linearGradient><linearGradient id="gradient-39ec9e2a-78e2-495b-9ee6-58468f19a0c0_1" x1="0" x2="1" y1="0" y2="1"><stop stop-color="#e8a941" offset="0"></stop><stop stop-color="#262626" offset="1"></stop></linearGradient><linearGradient id="gradient-39ec9e2a-78e2-495b-9ee6-58468f19a0c0_2" x1="0" x2="1" y1="0" y2="1"><stop stop-color="#e4a640" offset="0"></stop><stop stop-color="#292826" offset="1"></stop></linearGradient><linearGradient id="gradient-39ec9e2a-78e2-495b-9ee6-58468f19a0c0_3" x1="0" x2="1" y1="0" y2="1"><stop stop-color="#e4a640" offset="0"></stop><stop stop-color="#292826" offset="1"></stop></linearGradient><linearGradient id="gradient-39ec9e2a-78e2-495b-9ee6-58468f19a0c0_4" x1="0" x2="1" y1="0" y2="1"><stop stop-color="#dba03f" offset="0"></stop><stop stop-color="#322e27" offset="1"></stop></linearGradient><linearGradient id="gradient-39ec9e2a-78e2-495b-9ee6-58468f19a0c0_5" x1="0" x2="1" y1="0" y2="1"><stop stop-color="#dba03f" offset="0"></stop><stop stop-color="#322e27" offset="1"></stop></linearGradient><linearGradient id="gradient-220e8964-6bda-4bb2-bd6c-d17d7c0d7a6c" x1="0" x2="1" y1="0" y2="1"><stop stop-color="#e8a941" offset="0"></stop><stop stop-color="#262626" offset="1"></stop></linearGradient></defs></svg>